<svg width="180" height="32" viewBox="0 0 180 32" fill="none" xmlns="http://www.w3.org/2000/svg">
<path d="M2.26302 7.04858V16.9781H0V4.6624C0 4.23135 0.107763 3.87727 0.323288 3.63096C0.538813 3.36925 0.831312 3.24609 1.21618 3.24609C1.38552 3.24609 1.55486 3.27688 1.7242 3.35386C1.87815 3.43083 2.04749 3.55399 2.23223 3.72333L11.8077 13.2218V3.30767H14.0707V15.7312C14.0707 16.1776 13.963 16.5317 13.7474 16.778C13.5319 17.0243 13.2394 17.1475 12.9007 17.1475C12.5159 17.1475 12.1618 16.9781 11.8231 16.6395L2.26302 7.04858Z" fill="white"/>
<path d="M30.4974 17.0707L28.4653 13.6531H22.0457L23.1695 11.7287H27.3261L24.3087 6.64849L18.1509 17.0707H15.4414L23.2465 4.07758C23.3851 3.84666 23.539 3.66192 23.7391 3.52337C23.9239 3.38482 24.1548 3.32324 24.4165 3.32324C24.6782 3.32324 24.8937 3.38482 25.0785 3.52337C25.2632 3.66192 25.4171 3.84666 25.5557 4.07758L33.3762 17.0707H30.4974Z" fill="white"/>
<path d="M38.9016 13.2065V10.9127H44.3513C45.1826 10.9127 45.8292 10.6818 46.3065 10.2046C46.7683 9.72734 46.9992 9.11155 46.9992 8.34182C46.9992 7.55669 46.7683 6.9409 46.3065 6.47906C45.8446 6.01723 45.1826 5.7863 44.3513 5.7863H37.162V16.9782H34.8066V3.41553H44.3513C45.1365 3.41553 45.8292 3.52329 46.445 3.75421C47.0608 3.98513 47.5842 4.30842 47.9999 4.72407C48.4155 5.13973 48.7388 5.64775 48.9697 6.24814C49.2007 6.84854 49.3084 7.51051 49.3084 8.26485C49.3084 9.00379 49.2007 9.66576 48.9697 10.2662C48.7388 10.8665 48.4155 11.39 47.9999 11.821C47.5842 12.2521 47.0608 12.5907 46.445 12.8371C45.8292 13.0834 45.1365 13.2065 44.3513 13.2065H38.9016Z" fill="white"/>
<path d="M63.179 17.0707L61.1469 13.6531H54.7274L55.8512 11.7287H60.0077L56.9904 6.64849L50.8325 17.0707H48.123L55.9281 4.07758C56.0667 3.84666 56.2206 3.66192 56.4208 3.52337C56.6055 3.38482 56.8364 3.32324 57.0981 3.32324C57.3598 3.32324 57.5754 3.38482 57.7601 3.52337C57.9448 3.66192 58.0988 3.84666 58.2373 4.07758L66.0578 17.0707H63.179Z" fill="white"/>
<path d="M77.835 16.9782C76.8959 16.9782 76.0184 16.7935 75.2179 16.4394C74.4174 16.0853 73.7246 15.5927 73.1242 14.9769C72.5392 14.3611 72.0774 13.6376 71.7387 12.7909C71.4154 11.9442 71.2461 11.0359 71.2461 10.0506C71.2461 9.04997 71.4154 8.14169 71.7387 7.32577C72.062 6.50985 72.5239 5.8017 73.1242 5.2321C73.7092 4.6471 74.4174 4.20066 75.2179 3.89276C76.0184 3.56947 76.8959 3.41553 77.835 3.41553H85.1937V5.7863H77.835C77.2192 5.7863 76.665 5.89407 76.1416 6.10959C75.6182 6.32512 75.1871 6.63301 74.8023 7.01788C74.4328 7.40274 74.1403 7.86458 73.9248 8.4034C73.7092 8.94221 73.6015 9.52721 73.6015 10.1738C73.6015 10.805 73.7092 11.4054 73.9248 11.9442C74.1403 12.4984 74.4328 12.9602 74.8023 13.3605C75.1717 13.7453 75.6182 14.0532 76.1416 14.2842C76.665 14.5151 77.2192 14.6228 77.835 14.6228H83.6388V11.0975H77.5117V9.09616H86.025V16.9936H77.835V16.9782Z" fill="white"/>
<path d="M88.2109 16.9782V3.41553H90.5817V14.6074H99.7108V16.9782H88.2109Z" fill="white"/>
<path d="M119.447 16.9782V3.41553H129.377C130.039 3.41553 130.639 3.4925 131.178 3.64645C131.717 3.80039 132.179 4.01592 132.564 4.30842C132.948 4.60092 133.241 4.97039 133.456 5.41683C133.672 5.86328 133.78 6.3713 133.78 6.9409C133.78 7.37196 133.734 7.75682 133.626 8.08011C133.533 8.4034 133.395 8.6805 133.21 8.91142C133.041 9.14234 132.841 9.32708 132.61 9.49642C132.379 9.65037 132.132 9.77352 131.886 9.8351C132.502 10.0352 133.025 10.3893 133.41 10.9127C133.81 11.4361 134.011 12.0981 134.011 12.8986C134.011 13.5144 133.903 14.084 133.703 14.5921C133.503 15.1001 133.21 15.5311 132.825 15.8852C132.44 16.2393 131.979 16.5164 131.44 16.7165C130.901 16.9166 130.3 17.009 129.639 17.009H119.447V16.9782ZM123.542 11.0821V9.08076H129.408C130.085 9.08076 130.578 8.95761 130.901 8.71129C131.224 8.46498 131.394 8.03393 131.394 7.44893C131.394 7.09485 131.332 6.80235 131.193 6.58683C131.055 6.3713 130.855 6.20196 130.608 6.0788C130.347 5.95565 130.054 5.87867 129.7 5.84788C129.346 5.81709 128.946 5.7863 128.515 5.7863H121.849V14.6382H128.715C129.131 14.6382 129.531 14.6074 129.885 14.5459C130.239 14.4843 130.562 14.3765 130.824 14.238C131.086 14.0994 131.286 13.9147 131.424 13.6838C131.563 13.4528 131.64 13.1757 131.64 12.8371C131.64 12.2829 131.47 11.8518 131.116 11.5439C130.762 11.236 130.254 11.0821 129.592 11.0821H123.542Z" fill="white"/>
<path d="M149.189 17.0707L147.157 13.6531H140.737L141.861 11.7287H146.017L143 6.64849L136.842 17.0707H134.133L141.938 4.07758C142.076 3.84666 142.23 3.66192 142.431 3.52337C142.615 3.38482 142.846 3.32324 143.108 3.32324C143.37 3.32324 143.585 3.38482 143.77 3.52337C143.955 3.66192 144.109 3.84666 144.247 4.07758L152.068 17.0707H149.189Z" fill="white"/>
<path d="M153.5 16.9782V3.41553H155.871V14.6074H165V16.9782H153.5Z" fill="white"/>
<path d="M109.563 15.9785C109.486 16.0247 109.409 16.0709 109.332 16.1017C108.178 16.7175 106.977 17.2255 105.699 17.595C105.807 16.7636 105.93 15.9477 106.084 15.1472C106.13 14.9163 106.176 14.6854 106.238 14.4698C106.346 14.4544 106.438 14.4083 106.515 14.3467C106.962 14.6546 107.408 14.9317 107.885 15.1934C108.424 15.4859 108.978 15.763 109.563 15.9785Z" fill="white"/>
<path d="M113.181 16.7481C113.119 16.9329 112.95 17.0714 112.75 17.0714C112.504 17.0714 112.303 16.8713 112.288 16.6096C111.518 16.471 110.764 16.2555 110.025 15.9938C109.856 16.0862 109.671 16.1785 109.486 16.2709C108.285 16.8405 107.008 17.2562 105.699 17.4563C105.699 17.4563 105.699 17.4563 105.699 17.4409C105.576 16.6096 105.576 15.7629 105.653 14.9162C105.684 14.6699 105.715 14.4389 105.745 14.1926C105.576 14.0695 105.453 13.8693 105.453 13.6384C105.453 13.5461 105.468 13.4691 105.499 13.3921C105.207 13.1458 104.929 12.8841 104.652 12.607C103.436 12.3453 102.266 11.8526 101.281 11.1137C102.235 11.6371 103.251 12.0066 104.283 12.2067C103.821 11.6987 103.421 11.1445 103.067 10.5595C103.051 10.5287 103.036 10.5133 103.02 10.4825C102.974 10.4979 102.928 10.4979 102.882 10.4979C102.528 10.4979 102.251 10.2054 102.251 9.85133C102.251 9.6512 102.343 9.46647 102.497 9.3587C102.389 9.0816 102.297 8.8045 102.22 8.512C102.128 8.15792 102.066 7.78845 102.035 7.41898C102.004 7.0495 102.02 6.68003 102.066 6.32596C102.066 6.69543 102.112 7.0495 102.158 7.40358C102.22 7.75766 102.312 8.09634 102.435 8.45042C102.528 8.71213 102.636 8.97384 102.743 9.23555C102.79 9.22015 102.836 9.22015 102.882 9.22015C103.236 9.22015 103.513 9.49726 103.513 9.85133C103.513 10.0207 103.436 10.19 103.328 10.2978C103.344 10.3132 103.359 10.3286 103.359 10.3594C103.759 10.9444 104.19 11.514 104.699 12.022C104.791 12.1297 104.899 12.2221 104.991 12.3145C105.145 12.3299 105.284 12.3453 105.437 12.3607C105.668 12.3761 105.915 12.3915 106.146 12.4068V12.3915C106.407 11.5755 106.746 10.7904 107.177 10.0515C107.5 9.49726 107.87 8.97384 108.285 8.4966C108.178 8.40423 108.116 8.26568 108.116 8.11174C108.116 7.83463 108.347 7.60371 108.64 7.60371C108.932 7.60371 109.163 7.83463 109.163 8.11174C109.163 8.38884 108.932 8.63515 108.64 8.63515C108.563 8.63515 108.486 8.61976 108.424 8.58897C108.116 9.14318 107.839 9.69739 107.593 10.267C107.269 10.9751 106.992 11.6987 106.746 12.4222C107.039 12.4222 107.316 12.4068 107.608 12.3761C108.332 12.3145 109.055 12.2067 109.748 12.022C110.025 11.9604 110.287 11.868 110.564 11.7911C110.564 11.7757 110.564 11.7449 110.564 11.7295C110.564 11.3908 110.795 11.0983 111.118 11.0213C111.118 10.8828 111.118 10.7596 111.103 10.6211C111.103 10.4979 111.087 10.3748 111.087 10.267C110.518 10.2054 110.071 9.71278 110.071 9.12778C110.071 8.61976 110.395 8.2041 110.841 8.03476C110.826 7.91161 110.795 7.80384 110.779 7.68069L110.718 7.31121L110.641 6.95714C110.595 6.71082 110.518 6.4799 110.456 6.24898C110.395 6.01806 110.318 5.77175 110.241 5.54083C110.164 5.30991 110.087 5.07899 109.994 4.84807C109.963 4.84807 109.933 4.86346 109.902 4.86346C109.594 4.86346 109.332 4.64794 109.271 4.37083C108.409 4.24768 107.547 4.20149 106.669 4.20149C105.514 4.21689 104.344 4.37083 103.19 4.64794C101.897 6.09504 101.127 8.00397 101.127 10.0823C101.127 13.2843 102.974 16.0708 105.653 17.4101C105.653 17.4101 105.653 17.4101 105.668 17.4101H105.684C106.777 17.9489 108.008 18.2568 109.317 18.2568C111.072 18.2568 112.688 17.7026 114.028 16.7635C113.751 16.8097 113.473 16.7943 113.181 16.7481ZM109.332 1.93848C106.9 1.93848 104.714 3.00071 103.221 4.67873C104.298 4.1707 105.468 3.8936 106.654 3.80123C107.562 3.72426 108.486 3.73965 109.394 3.84741C109.425 3.80123 109.471 3.77044 109.502 3.73965C109.471 3.67807 109.44 3.6011 109.409 3.53952C109.194 3.09308 108.932 2.66203 108.655 2.24637C109.009 2.61584 109.317 3.00071 109.594 3.43176C109.64 3.49334 109.671 3.57031 109.717 3.63189C109.779 3.61649 109.84 3.6011 109.902 3.6011C110.194 3.6011 110.441 3.78584 110.518 4.04755C111.611 4.27847 112.688 4.63254 113.689 5.14057C114.643 5.6178 115.552 6.2028 116.337 6.92635C116.383 6.89556 116.445 6.88016 116.506 6.88016C116.691 6.88016 116.845 7.03411 116.845 7.21885C116.845 7.3574 116.768 7.46516 116.66 7.51134C116.568 8.72752 116.121 9.91291 115.506 10.9597C115.413 11.0983 115.336 11.2522 115.244 11.3908L114.951 11.8065C114.859 11.945 114.751 12.0836 114.643 12.2221C114.536 12.3607 114.443 12.4992 114.32 12.6224C114.089 12.8841 113.874 13.1304 113.627 13.3767C113.504 13.4999 113.381 13.623 113.258 13.7308L112.873 14.0695C112.119 14.7314 111.272 15.301 110.41 15.7937C111.026 16.04 111.672 16.2555 112.319 16.4402C112.396 16.2863 112.55 16.1785 112.735 16.1785C112.981 16.1785 113.196 16.3787 113.196 16.6404C113.196 16.6558 113.196 16.6558 113.196 16.6712C113.473 16.7327 113.766 16.7943 114.043 16.8405C116.137 15.3626 117.507 12.9149 117.507 10.1592C117.522 5.60241 113.858 1.93848 109.332 1.93848ZM116.537 7.51134C116.522 7.51134 116.491 7.51134 116.475 7.51134C115.906 8.71213 114.998 9.75896 113.935 10.5749C113.35 11.0367 112.704 11.4062 112.026 11.7295C112.026 11.7449 112.026 11.7449 112.026 11.7603C112.026 12.1605 111.703 12.4838 111.303 12.4838C111.226 12.8841 111.149 13.2689 111.041 13.6538C111.072 13.2536 111.103 12.8533 111.118 12.4684C110.98 12.4376 110.872 12.3607 110.779 12.2529C110.487 12.3453 110.194 12.4376 109.902 12.5146C109.178 12.6993 108.424 12.8225 107.67 12.8687C107.331 12.8841 106.992 12.8841 106.654 12.8841C106.623 12.9764 106.607 13.0534 106.577 13.1458C106.731 13.2689 106.823 13.4537 106.823 13.6692C106.823 13.7308 106.823 13.7924 106.808 13.8386C107.239 14.1464 107.67 14.4235 108.132 14.6853C108.732 15.0393 109.363 15.3318 109.994 15.6089L110.225 15.4704C110.518 15.301 110.779 15.1163 111.057 14.9316C111.195 14.8392 111.334 14.7468 111.457 14.6391L111.857 14.3466L112.242 14.0387C112.365 13.9309 112.504 13.8386 112.627 13.7154C113.627 12.8533 114.52 11.868 115.244 10.7596C115.89 9.77436 116.398 8.68134 116.645 7.51134C116.599 7.51134 116.568 7.51134 116.537 7.51134ZM116.214 7.18806C116.214 7.09569 116.245 7.01871 116.306 6.95714C115.413 6.40293 114.49 5.92569 113.535 5.52543C112.534 5.12517 111.518 4.81728 110.472 4.60175C110.441 4.64794 110.395 4.69412 110.348 4.74031C110.564 5.20215 110.733 5.67938 110.887 6.15661C110.964 6.40293 111.041 6.64924 111.087 6.89556L111.18 7.26503L111.257 7.6345C111.287 7.75766 111.303 7.88082 111.318 8.01937C111.919 8.05016 112.396 8.55818 112.396 9.15857C112.396 9.71278 112.011 10.1746 111.488 10.2824C111.488 10.4055 111.488 10.5287 111.472 10.6519C111.472 10.775 111.457 10.9136 111.457 11.0367C111.626 11.0675 111.765 11.1753 111.872 11.2984C112.519 11.0059 113.119 10.6519 113.704 10.2516C114.767 9.51265 115.706 8.57358 116.414 7.46516C116.291 7.44977 116.214 7.32661 116.214 7.18806Z" fill="white"/>
<path d="M23.6331 29.8618L21.8781 27.414H21.8628V29.8618H20V22.2568H22.4016C22.6479 22.2568 22.8634 22.2568 23.0174 22.2722C23.2483 22.2876 23.4484 22.303 23.6331 22.3338C24.095 22.4108 24.4645 22.5647 24.757 22.7956C25.3881 23.3037 25.696 23.981 25.696 24.8739C25.696 25.4743 25.5267 25.9977 25.2034 26.4288C24.8647 26.8906 24.3875 27.1677 23.8025 27.2601L25.8654 29.8464H23.6331V29.8618ZM23.4484 24.1966C23.2329 24.0426 22.9404 23.9656 22.5709 23.9656H21.8628V26.0747H22.5555C23.4022 26.0747 23.8333 25.7052 23.8333 24.9817C23.8179 24.643 23.6947 24.3813 23.4484 24.1966Z" fill="white"/>
<path d="M33.6391 27.5218H29.3594C29.4672 28.2453 29.9136 28.5994 30.6988 28.5994C31.099 28.5994 31.4531 28.43 31.7302 28.0606H33.4698C33.2235 28.6456 32.854 29.1228 32.3768 29.4769C31.8688 29.8464 31.3146 30.0311 30.6834 30.0311C29.8521 30.0311 29.1439 29.7386 28.5589 29.1382C27.9739 28.5532 27.666 27.845 27.666 27.0137C27.666 26.1824 27.9585 25.4589 28.5281 24.8585C29.1131 24.2581 29.8213 23.9502 30.6526 23.9502C31.5147 23.9502 32.2382 24.2581 32.8078 24.8585C33.3774 25.4589 33.6545 26.1824 33.6545 27.0599C33.6699 27.2447 33.6545 27.3832 33.6391 27.5218ZM31.9765 26.3826C31.838 25.736 31.4069 25.4127 30.6834 25.4127C29.9598 25.4127 29.5288 25.736 29.3902 26.3826H31.9765Z" fill="white"/>
<path d="M40.4435 29.8617V29.2459H40.4281C40.2896 29.523 40.0433 29.7232 39.7046 29.8771C39.4121 30.0003 39.1042 30.0618 38.7501 30.0618C37.888 30.0618 37.1953 29.7693 36.6565 29.169C36.1484 28.5994 35.8867 27.8758 35.8867 27.0137C35.8867 26.167 36.1484 25.4435 36.6718 24.8738C37.2107 24.2735 37.9034 23.981 38.7501 23.981C39.0888 23.981 39.4121 24.0425 39.6892 24.1657C40.0125 24.3042 40.2434 24.5044 40.4127 24.7815H40.4281V24.1811H42.137V29.8771H40.4435V29.8617ZM40.0279 25.9669C39.7508 25.6898 39.4121 25.5512 38.9964 25.5512C38.5808 25.5512 38.2421 25.6898 37.9804 25.9823C37.7187 26.2594 37.5955 26.598 37.5955 27.0137C37.5955 27.414 37.7341 27.7526 37.9958 28.0298C38.2729 28.3069 38.6116 28.4454 39.0118 28.4454C39.4275 28.4454 39.7662 28.3069 40.0279 28.0298C40.2896 27.7526 40.4281 27.414 40.4281 26.9983C40.4435 26.5827 40.305 26.244 40.0279 25.9669Z" fill="white"/>
<path d="M44.9238 29.8618V22.2568H46.6326V29.8618H44.9238Z" fill="white"/>
<path d="M49.3887 23.55V22.2568H51.0975V23.55H49.3887ZM49.3887 29.8618V24.1658H51.0975V29.8618H49.3887Z" fill="white"/>
<path d="M53.4062 29.8616V28.6916L55.8078 25.4587H53.4062V24.1655H57.6398V25.4587L55.4076 28.5684H57.6398V29.8616H53.4062Z" fill="white"/>
<path d="M65.5984 27.5218H61.334C61.4418 28.2453 61.8882 28.5994 62.6734 28.5994C63.0736 28.5994 63.4277 28.43 63.7048 28.0606H65.4444C65.1981 28.6456 64.8286 29.1228 64.3514 29.4769C63.8434 29.8464 63.2892 30.0311 62.658 30.0311C61.8267 30.0311 61.1185 29.7386 60.5335 29.1382C59.9485 28.5532 59.6406 27.845 59.6406 27.0137C59.6406 26.1824 59.9331 25.4589 60.5027 24.8585C61.0877 24.2581 61.7959 23.9502 62.6272 23.9502C63.4893 23.9502 64.2128 24.2581 64.7824 24.8585C65.352 25.4589 65.6291 26.1824 65.6291 27.0599C65.6445 27.2447 65.6291 27.3832 65.5984 27.5218ZM63.9357 26.3826C63.7972 25.736 63.3661 25.4127 62.6426 25.4127C61.919 25.4127 61.488 25.736 61.3494 26.3826H63.9357Z" fill="white"/>
<path d="M76.5287 27.0908V29.8464H74.589V27.0908L72.3105 22.2568H74.4196L75.5434 25.305L76.6826 22.2568H78.7609L76.5287 27.0908Z" fill="white"/>
<path d="M85.0582 29.1692C84.4732 29.7388 83.7496 30.0313 82.8721 30.0313C81.9946 30.0313 81.2711 29.7388 80.6861 29.1692C80.1011 28.5996 79.8086 27.8761 79.8086 26.9986C79.8086 26.1211 80.1011 25.3975 80.6861 24.8279C81.2711 24.2583 81.9946 23.9658 82.8721 23.9658C83.7496 23.9658 84.4732 24.2583 85.0582 24.8279C85.6432 25.3975 85.9357 26.1211 85.9357 26.9986C85.9511 27.8761 85.6586 28.5996 85.0582 29.1692ZM83.8574 25.9979C83.5957 25.7054 83.2724 25.5669 82.8721 25.5669C82.4873 25.5669 82.164 25.7054 81.9023 25.9979C81.6406 26.275 81.5174 26.6137 81.5174 26.9986C81.5174 27.3834 81.6406 27.7221 81.9023 27.9992C82.164 28.2763 82.4873 28.4303 82.8721 28.4303C83.257 28.4303 83.5957 28.2917 83.8574 27.9992C84.1191 27.7221 84.2423 27.3834 84.2423 26.9986C84.2423 26.6137 84.1191 26.275 83.8574 25.9979Z" fill="white"/>
<path d="M92.1088 29.8618V29.2614H92.0934C91.9548 29.5539 91.7547 29.754 91.4776 29.8926C91.2467 30.0003 90.9542 30.0619 90.6155 30.0619C89.892 30.0619 89.3377 29.8156 88.9375 29.3384C88.722 29.0767 88.5834 28.7996 88.5064 28.5071C88.4449 28.2915 88.4141 27.9836 88.4141 27.5834V24.1812H90.1229V27.3371C90.1229 27.7065 90.1845 27.9682 90.2922 28.153C90.4308 28.3685 90.6771 28.4763 91.0312 28.4763C91.6777 28.4763 92.001 28.0914 92.001 27.3217V24.1965H93.7098V29.8926H92.1088V29.8618Z" fill="white"/>
<path d="M99.5286 25.6744C99.0976 25.6898 98.7743 25.7514 98.5741 25.8745C98.3124 26.0285 98.1893 26.321 98.1893 26.7212V29.8464H96.4805V24.1503H98.0815V24.7507H98.1123C98.3894 24.2119 98.8512 23.9502 99.5286 23.9502V25.6744Z" fill="white"/>
<path d="M110.536 29.8618H108.534L106.01 22.2568H107.996L109.52 27.5834H109.551L111.09 22.2568H113.091L110.536 29.8618Z" fill="white"/>
<path d="M115.047 23.55V22.2568H116.756V23.55H115.047ZM115.047 29.8618V24.1658H116.756V29.8618H115.047Z" fill="white"/>
<path d="M123.053 29.5539C122.622 29.8771 122.083 30.0465 121.452 30.0465C120.836 30.0465 120.313 29.8925 119.897 29.5692C119.45 29.2306 119.204 28.7533 119.143 28.1529H120.836C120.882 28.507 121.098 28.6764 121.483 28.6764C121.637 28.6764 121.76 28.6456 121.883 28.5686C122.021 28.4916 122.083 28.3685 122.083 28.2299C122.083 28.0606 121.991 27.9066 121.806 27.7989L121.56 27.6757L120.574 27.3216C120.174 27.1831 119.866 26.9983 119.635 26.7828C119.358 26.5211 119.204 26.1978 119.204 25.8283C119.204 25.2587 119.435 24.7969 119.897 24.4428C120.328 24.1195 120.821 23.9502 121.421 23.9502C122.021 23.9502 122.514 24.1041 122.899 24.3966C123.315 24.7199 123.545 25.1664 123.607 25.7514H121.929C121.914 25.4589 121.744 25.3203 121.39 25.3203C121.067 25.3203 120.898 25.4435 120.898 25.7052C120.898 25.8899 121.052 26.0439 121.344 26.167C121.452 26.2132 121.59 26.2594 121.806 26.321C121.821 26.321 121.837 26.3364 121.867 26.3364L122.329 26.4749C122.529 26.5365 122.714 26.6135 122.853 26.6904C123.037 26.7828 123.191 26.8906 123.315 26.9983C123.622 27.2754 123.761 27.6449 123.761 28.0914C123.792 28.7225 123.545 29.1998 123.053 29.5539Z" fill="white"/>
<path d="M126.162 23.55V22.2568H127.871V23.55H126.162ZM126.162 29.8618V24.1658H127.871V29.8618H126.162Z" fill="white"/>
<path d="M135.628 29.1692C135.043 29.7388 134.32 30.0313 133.442 30.0313C132.565 30.0313 131.841 29.7388 131.256 29.1692C130.671 28.5996 130.379 27.8761 130.379 26.9986C130.379 26.1211 130.671 25.3975 131.256 24.8279C131.841 24.2583 132.565 23.9658 133.442 23.9658C134.32 23.9658 135.043 24.2583 135.628 24.8279C136.213 25.3975 136.506 26.1211 136.506 26.9986C136.506 27.8761 136.213 28.5996 135.628 29.1692ZM134.428 25.9979C134.166 25.7054 133.843 25.5669 133.442 25.5669C133.058 25.5669 132.734 25.7054 132.473 25.9979C132.211 26.275 132.088 26.6137 132.088 26.9986C132.088 27.3834 132.211 27.7221 132.473 27.9992C132.734 28.2763 133.058 28.4303 133.442 28.4303C133.827 28.4303 134.166 28.2917 134.428 27.9992C134.689 27.7221 134.813 27.3834 134.813 26.9986C134.813 26.6137 134.674 26.275 134.428 25.9979Z" fill="white"/>
<path d="M142.587 29.8617V26.752C142.587 26.3826 142.541 26.1054 142.433 25.9207C142.295 25.6898 142.048 25.5666 141.694 25.5666C141.325 25.5666 141.063 25.6744 140.909 25.9053C140.786 26.0901 140.724 26.3826 140.724 26.752V29.8464H139.016V24.1503H140.601V24.7507H140.632C140.955 24.2119 141.479 23.9502 142.187 23.9502C142.772 23.9502 143.249 24.1195 143.649 24.4428C143.896 24.643 144.08 24.9355 144.188 25.2741C144.265 25.5512 144.311 25.8745 144.311 26.2748V29.831H142.587V29.8617Z" fill="white"/>
</svg>
