<?xml version="1.0" encoding="UTF-8"?>
<svg id="Layer_2" data-name="Layer 2" xmlns="http://www.w3.org/2000/svg" xmlns:xlink="http://www.w3.org/1999/xlink" viewBox="0 0 802 802">
  <defs>
    <style>
      .cls-1 {
        fill: url(#linear-gradient-2);
        filter: url(#drop-shadow-1);
      }

      .cls-1, .cls-2 {
        stroke-width: 0px;
      }

      .cls-3 {
        fill: #fff;
        stroke: url(#linear-gradient);
        stroke-miterlimit: 10;
        stroke-width: 10px;
      }

      .cls-2 {
        fill: url(#linear-gradient-3);
        filter: url(#drop-shadow-2);
      }
    </style>
    <linearGradient id="linear-gradient" x1="0" y1="401" x2="802" y2="401" gradientUnits="userSpaceOnUse">
      <stop offset="0" stop-color="#4c1a57"/>
      <stop offset=".15" stop-color="#491e59"/>
      <stop offset=".32" stop-color="#412c61"/>
      <stop offset=".51" stop-color="#35436f"/>
      <stop offset=".7" stop-color="#246481"/>
      <stop offset=".9" stop-color="#0e8d99"/>
      <stop offset="1" stop-color="#01a6a8"/>
    </linearGradient>
    <linearGradient id="linear-gradient-2" x1="116.65" y1="342.75" x2="183.57" y2="409.67" gradientUnits="userSpaceOnUse">
      <stop offset="0" stop-color="#4c1a57"/>
      <stop offset="1" stop-color="#01a6a8"/>
    </linearGradient>
    <filter id="drop-shadow-1" filterUnits="userSpaceOnUse">
      <feOffset dx="7" dy="7"/>
      <feGaussianBlur result="blur" stdDeviation="13"/>
      <feFlood flood-color="#000" flood-opacity=".4"/>
      <feComposite in2="blur" operator="in"/>
      <feComposite in="SourceGraphic"/>
    </filter>
    <linearGradient id="linear-gradient-3" x1="210" y1="249.8" x2="554.84" y2="594.64" xlink:href="#linear-gradient"/>
    <filter id="drop-shadow-2" filterUnits="userSpaceOnUse">
      <feOffset dx="7" dy="7"/>
      <feGaussianBlur result="blur-2" stdDeviation="13"/>
      <feFlood flood-color="#000" flood-opacity=".4"/>
      <feComposite in2="blur-2" operator="in"/>
      <feComposite in="SourceGraphic"/>
    </filter>
  </defs>
  <g id="Layer_1-2" data-name="Layer 1">
    <circle class="cls-3" cx="401" cy="401" r="396"/>
    <path class="cls-1" d="m187.63,387.81v-23.2c3.47-1.13,5.97-4.39,5.97-8.24,0-4.79-3.88-8.67-8.67-8.67-2.24,0-4.28.86-5.82,2.25l-20.76-11.99c.02-.25.04-.49.04-.74,0-4.79-3.88-8.67-8.67-8.67s-8.67,3.88-8.67,8.67c0,.4.04.79.09,1.17l-20.02,11.56c-1.54-1.4-3.58-2.25-5.82-2.25-4.79,0-8.67,3.88-8.67,8.67,0,3.85,2.51,7.1,5.97,8.24v23.2c-3.47,1.13-5.97,4.39-5.97,8.24,0,4.79,3.88,8.67,8.67,8.67,2.03,0,3.9-.7,5.37-1.87l20.47,11.82c-.05.38-.09.77-.09,1.17,0,4.79,3.88,8.67,8.67,8.67s8.67-3.88,8.67-8.67c0-.25-.02-.5-.04-.74l21.2-12.24c1.48,1.17,3.34,1.87,5.37,1.87,4.79,0,8.67-3.88,8.67-8.67,0-3.85-2.51-7.1-5.97-8.24Zm-4.61-.22c-3.87.87-6.76,4.32-6.76,8.45,0,1.08.21,2.11.57,3.06l-20.11,11.61c-1.58-2.15-4.12-3.56-6.99-3.56s-5.17,1.27-6.76,3.24l-19.56-11.29c.36-.95.57-1.98.57-3.06,0-4.13-2.89-7.58-6.76-8.45v-22.77c3.87-.87,6.76-4.32,6.76-8.45,0-.88-.13-1.73-.38-2.53l19.37-11.19c1.59,1.97,4.02,3.24,6.76,3.24,2.87,0,5.42-1.4,6.99-3.56l19.92,11.5c-.24.8-.38,1.65-.38,2.53,0,4.13,2.89,7.58,6.76,8.45v22.77Zm-12.19,2.03l-20.72,11.6-20.72-11.6c.83.46,1.85.46,2.67,0l18.05-10.1,18.05,10.1c.83.46,1.85.46,2.67,0Zm1.34-23.95v21.71c0-.93-.51-1.78-1.34-2.25l-18.05-10.1v-20.21c0-.93-.51-1.78-1.34-2.25l19.38,10.85c.83.46,1.34,1.32,1.34,2.25Zm-24.73,9.36l-18.05,10.1c-.83.46-1.34,1.32-1.34,2.25v-21.71c0-.93.51-1.78,1.34-2.25l19.38-10.85c-.83.46-1.34,1.32-1.34,2.25v20.21Z"/>
    <path class="cls-2" d="m303.3,191.5s39-43,39-74c0,0,8,3,7,11,0,0,5,18-21,50,0,0-25,21-25,13Zm-40.3,234.4v.1c-.08.05-.06,0,0-.1Zm-43.7-107.4s57-33,65-32c0,0,11,1,9,6s-4,9-13,13-54,37-57,42c0,0,3,10,24,19,0,0,0-20,14-29,0,0,28-22,45-27,0,0,32.52-11.43,39.06-28.51.44-1.14.76-2.3.94-3.49,0,0-14,2-19-6,0,0,42-14,33-45,0,0-9,14-42,11,0,0-9-11,37-40,0,0,51-38,45-77,0,0-2-7-7-6,0,0-12,54-81,90,0,0-45,23-63,39,0,0-10,9-14,29,0,0-6.65,10.67-22.82,15.83,0,0-11.93-.17-16.05,0,0,0-2.12-.83-5.12,5.17,0,0-3,11.93,0,15.46,0,0,0,5.54,4,10.54,0,0,11,10,11,12h1.96s.04-10,11.04-14Zm70.55-77.55c-1.45,36.45-34.55,35.55-34.55,35.55-5-18,34.55-35.55,34.55-35.55Zm127.72,412.05c-2.28.24-11.17.66-23.56-.77-22.58-2.59-103.17-20.5-130.19-98.73,0,0-3.02-64.51,57.18-86.5,0,0-26.46,115.28,97.24,119.06,192.06,5.87,197.1-328.63-47.4-323.06,0,0,17.03-5,12.1-60,300.48-18.77,331.54,419.14,34.64,450Zm-96.57-326.76l1,69.76c-28.17-1.28-57.73,28.01-59,29.9v-64.56c0-18.65,58-35.1,58-35.1Zm0,342.76s-60.98-10.73-97.79-82.94c-44.28-86.83,54.49-209.74,182.1-190.56,113.55,17.07,67-93,67-93,16.3.5,57.39,60.66,60.7,94.33,3.67,37.34-71.91,59.3-75.7,55.67-.02,6.72-122.33-49.95-194.3,43.67-76.18,99.09,58,172.83,58,172.83Zm154.3-204.5c49.8-9,57.7-36.5,57.7-36.5-.5,106.5-71.92,135-71.92,135,45.58-33.5,14.22-98.5,14.22-98.5Z"/>
  </g>
</svg>