<svg width="78" height="36" viewBox="0 0 78 36" fill="none" xmlns="http://www.w3.org/2000/svg">
<path d="M2.87695 0.00683594H72.3447C73.0777 0.00695033 73.7762 0.294382 74.2998 0.813477L77.1758 3.66895C77.6995 4.19516 78 4.90454 78 5.65527V8.97363H77.9932V33.2705C77.9932 34.7789 76.5757 35.9999 74.8232 36H3.16992C1.41738 36 0 34.779 0 33.2705V2.72949C0 1.22101 1.28497 0 2.87695 0V0.00683594Z" fill="#00E160"/>
<path d="M52.877 20.9023C53.1073 21.26 53.5753 21.4911 54.0918 21.4912H63.7002C64.2167 21.4911 64.6846 21.267 64.915 20.9023L66.1631 18.9375H72.2881C72.4556 18.9375 72.6233 19.0075 72.749 19.1338L75.6748 22.0107C75.8213 22.1581 75.9121 22.376 75.9121 22.6074V32.9766C75.9121 33.4115 75.5978 33.7694 75.2139 33.7695H42.5781C42.1941 33.7695 41.8799 33.4116 41.8799 32.9766V22.6074C41.8799 22.383 41.9637 22.1581 42.1172 22.0107L45.043 19.1338C45.1756 19.0076 45.3364 18.9375 45.5039 18.9375H51.6289L52.877 20.9023ZM49.623 26.3535C49.415 26.3536 49.2462 26.5233 49.2461 26.7324V29.3428C49.2462 29.5518 49.415 29.7215 49.623 29.7217H53.7285C53.9367 29.7217 54.1063 29.5519 54.1064 29.3428V26.7324C54.1064 26.5232 53.9367 26.3535 53.7285 26.3535H49.623ZM64.0693 26.3535C63.8613 26.3538 63.6924 26.5234 63.6924 26.7324V29.3428C63.6925 29.5518 63.8614 29.7214 64.0693 29.7217H68.1758C68.3838 29.7215 68.5526 29.5518 68.5527 29.3428V26.7324C68.5527 26.5233 68.3838 26.3537 68.1758 26.3535H64.0693Z" fill="#0B0B0B"/>
<path d="M14.8163 13.7583C14.6836 13.625 14.6138 13.4496 14.6138 13.2601V2.8481C14.6138 2.46221 14.928 2.14648 15.312 2.14648H18.4541C18.8381 2.14648 19.1523 2.46221 19.1523 2.8481V10.9799C19.1523 11.1693 19.2291 11.3447 19.3548 11.478L20.2276 12.355C20.6675 12.7971 21.4216 12.4813 21.4216 11.8569V2.8481C21.4216 2.46221 21.7358 2.14648 22.1198 2.14648H25.2619C25.6459 2.14648 25.9601 2.46221 25.9601 2.8481V16.2771C25.9601 16.663 25.6459 16.9787 25.2619 16.9787H18.3005C18.1119 16.9787 17.9374 16.9015 17.8047 16.7752L14.8093 13.7653L14.8163 13.7583Z" fill="#0B0B0B"/>
<path d="M38.2425 5.36691C38.3751 5.50022 38.445 5.67562 38.445 5.86506V16.2771C38.445 16.663 38.1308 16.9787 37.7467 16.9787H34.6047C34.2206 16.9787 33.9064 16.663 33.9064 16.2771V8.14532C33.9064 7.95588 33.8296 7.78048 33.7039 7.64717L32.8312 6.77015C32.3913 6.32813 31.6372 6.64386 31.6372 7.2683V16.2771C31.6372 16.663 31.323 16.9787 30.9389 16.9787H27.7969C27.4128 16.9787 27.0986 16.663 27.0986 16.2771V2.8481C27.0986 2.46221 27.4128 2.14648 27.7969 2.14648H34.7583C34.9468 2.14648 35.1214 2.22366 35.254 2.34995L38.2495 5.3599L38.2425 5.36691Z" fill="#0B0B0B"/>
<path d="M46.3977 2.8481C46.3977 2.46221 46.7119 2.14648 47.0959 2.14648H50.238C50.622 2.14648 50.9362 2.46221 50.9362 2.8481V9.84324C50.9362 10.0327 50.8594 10.2081 50.7337 10.3414L49.1627 11.92C48.8904 12.1937 48.8904 12.6357 49.1627 12.9093L50.7337 14.488C50.8664 14.6213 50.9362 14.7967 50.9362 14.9861V16.2771C50.9362 16.663 50.622 16.9787 50.238 16.9787H47.0959C46.7119 16.9787 46.3977 16.663 46.3977 16.2771V16.1297C46.3977 15.9403 46.3208 15.7649 46.1952 15.6316L45.3224 14.7546C44.8825 14.3125 44.1284 14.6283 44.1284 15.2527V16.2771C44.1284 16.663 43.8142 16.9787 43.4301 16.9787H40.2881C39.9041 16.9787 39.5898 16.663 39.5898 16.2771V2.8481C39.5898 2.46221 39.9041 2.14648 40.2881 2.14648H43.4301C43.8142 2.14648 44.1284 2.46221 44.1284 2.8481V8.6996C44.1284 8.88904 44.2052 9.06444 44.3309 9.19775L45.2037 10.0748C45.6436 10.5168 46.3977 10.2011 46.3977 9.57662V2.8481Z" fill="#0B0B0B"/>
<path d="M70.2911 14.7546C69.8512 14.3125 69.0971 14.6283 69.0971 15.2527V16.2771C69.0971 16.663 68.7829 16.9787 68.3989 16.9787H65.2568C64.8728 16.9787 64.5586 16.663 64.5586 16.2771V2.8481C64.5586 2.46221 64.8728 2.14648 65.2568 2.14648H72.2182C72.3998 2.14648 72.5813 2.22366 72.714 2.34995L75.7094 5.3599C75.8421 5.4932 75.9119 5.66861 75.9119 5.85805V16.2701C75.9119 16.656 75.5977 16.9717 75.2137 16.9717H72.0716C71.6876 16.9717 71.3734 16.656 71.3734 16.2701V16.1227C71.3734 15.9333 71.3036 15.7579 71.1709 15.6246L70.2981 14.7476L70.2911 14.7546ZM70.1794 10.0748C70.6193 10.5168 71.3734 10.2011 71.3734 9.57662V8.13831C71.3734 7.94887 71.3036 7.77346 71.1709 7.64016L70.2981 6.76313C69.8582 6.32111 69.1041 6.63684 69.1041 7.26128V8.6996C69.1041 8.88904 69.1809 9.06444 69.3066 9.19775L70.1794 10.0748Z" fill="#0B0B0B"/>
<path d="M17.9586 19.21C18.0912 19.0416 18.2937 18.9434 18.5102 18.9434H25.4227C25.8067 18.9434 26.1209 19.2591 26.1209 19.645V33.074C26.1209 33.4598 25.8067 33.7756 25.4227 33.7756H22.2806C21.8966 33.7756 21.5824 33.4598 21.5824 33.074V24.0652C21.5824 23.4407 20.8283 23.125 20.3884 23.567L19.5156 24.444C19.383 24.5774 19.3131 24.7528 19.3131 24.9422V33.074C19.3131 33.4598 18.9989 33.7756 18.6149 33.7756H15.4728C15.0888 33.7756 14.7746 33.4598 14.7746 33.074V24.9422C14.7746 24.7528 14.6978 24.5774 14.5721 24.444L13.6993 23.567C13.2594 23.125 12.5053 23.4407 12.5053 24.0652V33.074C12.5053 33.4598 12.1911 33.7756 11.8071 33.7756H8.66503C8.281 33.7756 7.9668 33.4598 7.9668 33.074V19.645C7.9668 19.2591 8.281 18.9434 8.66503 18.9434H15.5776C15.794 18.9434 15.9965 19.0416 16.1292 19.21L16.5062 19.6941C16.7855 20.0519 17.3232 20.0519 17.6025 19.6941L17.9795 19.21H17.9586Z" fill="#0B0B0B"/>
<path d="M34.0671 23.9748C34.0671 23.3784 33.3479 23.0837 32.929 23.5047L32.0003 24.4378C31.8676 24.5711 31.7978 24.7465 31.7978 24.936V29.6509C31.7978 30.0367 32.112 30.3525 32.496 30.3525H37.9144C38.2984 30.3525 38.6126 30.6682 38.6126 31.0541V33.0747C38.6126 33.4606 38.2984 33.7764 37.9144 33.7764H27.9575C27.5735 33.7764 27.2593 33.4606 27.2593 33.0747V22.6627C27.2593 22.4733 27.3361 22.2979 27.4618 22.1646L30.4572 19.1546C30.5899 19.0213 30.7644 18.9512 30.9529 18.9512H37.9144C38.2984 18.9512 38.6126 19.2669 38.6126 19.6528V23.9537C38.6126 24.3396 38.2984 24.6553 37.9144 24.6553H34.7374C34.3673 24.6553 34.0741 24.3536 34.0741 23.9888L34.0671 23.9748ZM38.6056 28.5072C38.6056 28.8931 38.2914 29.2088 37.9074 29.2088H33.6272C33.2432 29.2088 32.929 28.8931 32.929 28.5072V26.4866C32.929 26.1007 33.2432 25.7849 33.6272 25.7849H37.9074C38.2914 25.7849 38.6056 26.1007 38.6056 26.4866V28.5072Z" fill="#0B0B0B"/>
<path d="M12.7776 2.14648H2.82079C2.43676 2.14648 2.12256 2.46221 2.12256 2.8481V26.4926C2.12256 26.8785 2.43676 27.1943 2.82079 27.1943H5.94191C6.32594 27.1943 6.64015 26.8785 6.64015 26.4926L6.66109 16.2771C6.66109 16.2771 6.66109 16.2771 6.66109 16.2701V14.1021C6.66109 13.4776 7.41519 13.1619 7.85508 13.6039L8.4416 14.1933C8.71391 14.4669 9.1538 14.4669 9.42611 14.1933L13.2664 10.3344C13.3991 10.2011 13.4689 10.0257 13.4689 9.83622V2.8481C13.4689 2.46221 13.1547 2.14648 12.7707 2.14648H12.7776ZM8.93036 8.44C8.93036 9.06444 8.17627 9.38017 7.73638 8.93815L6.86358 8.06113C6.73092 7.92782 6.66109 7.75242 6.66109 7.56298V6.272C6.66109 5.88611 6.9753 5.57038 7.35933 5.57038H8.23213C8.61616 5.57038 8.93036 5.88611 8.93036 6.272V8.44Z" fill="#0B0B0B"/>
<path d="M2.12256 29.9582C2.12256 29.5583 2.44375 29.2285 2.84872 29.2285H5.92096C6.31896 29.2285 6.64713 29.5513 6.64713 29.9582V33.0453C6.64713 33.4452 6.32594 33.775 5.92096 33.775H2.84872C2.45073 33.775 2.12256 33.4523 2.12256 33.0453V29.9582Z" fill="#0B0B0B"/>
<path d="M57.695 12.355C58.1349 12.7971 58.889 12.4813 58.889 11.8569V10.8325C58.889 10.4466 59.2032 10.1309 59.5872 10.1309H62.7293C63.1133 10.1309 63.4275 10.4466 63.4275 10.8325V16.2771C63.4275 16.663 63.1133 16.9787 62.7293 16.9787H55.7679C55.5794 16.9787 55.4048 16.9015 55.2721 16.7752L52.2767 13.7653C52.144 13.632 52.0742 13.4566 52.0742 13.2671V2.8481C52.0742 2.46221 52.3884 2.14648 52.7725 2.14648H62.7293C63.1133 2.14648 63.4275 2.46221 63.4275 2.8481V4.86876C63.4275 5.25465 63.1133 5.57038 62.7293 5.57038H57.311C56.927 5.57038 56.6128 5.88611 56.6128 6.272V10.9869C56.6128 11.1763 56.6896 11.3517 56.8152 11.485L57.688 12.362L57.695 12.355Z" fill="#0B0B0B"/>
</svg>
